<?xml version="1.0" encoding="UTF-8" standalone="no"?>
<!-- Created with Inkscape (http://www.inkscape.org/) -->

<svg
   xmlns:dc="http://purl.org/dc/elements/1.1/"
   xmlns:cc="http://creativecommons.org/ns#"
   xmlns:rdf="http://www.w3.org/1999/02/22-rdf-syntax-ns#"
   xmlns:svg="http://www.w3.org/2000/svg"
   xmlns="http://www.w3.org/2000/svg"
   xmlns:xlink="http://www.w3.org/1999/xlink"
   xmlns:sodipodi="http://sodipodi.sourceforge.net/DTD/sodipodi-0.dtd"
   xmlns:inkscape="http://www.inkscape.org/namespaces/inkscape"
   id="svg2"
   sodipodi:version="0.32"
   inkscape:version="0.47 r22583"
   width="72"
   height="72"
   version="1.0"
   sodipodi:docname="twicca_nfnf_plugin.svg"
   inkscape:output_extension="org.inkscape.output.svg.inkscape"
   inkscape:export-filename="/home/mstssk/Dropbox/workspace/twiccaNfnfPlugin/res/drawable-ldpi/ic_launcher.png"
   inkscape:export-xdpi="45"
   inkscape:export-ydpi="45">
  <metadata
     id="metadata7">
    <rdf:RDF>
      <cc:Work
         rdf:about="">
        <dc:format>image/svg+xml</dc:format>
        <dc:type
           rdf:resource="http://purl.org/dc/dcmitype/StillImage" />
        <dc:title></dc:title>
      </cc:Work>
    </rdf:RDF>
  </metadata>
  <defs
     id="defs5">
    <linearGradient
       id="linearGradient3639">
      <stop
         style="stop-color:#b27561;stop-opacity:1;"
         offset="0"
         id="stop3641" />
      <stop
         style="stop-color:#b27561;stop-opacity:0;"
         offset="1"
         id="stop3643" />
    </linearGradient>
    <linearGradient
       id="linearGradient3653">
      <stop
         style="stop-color:#ff8416;stop-opacity:1;"
         offset="0"
         id="stop3655" />
      <stop
         style="stop-color:#ffb879;stop-opacity:1;"
         offset="1"
         id="stop3657" />
    </linearGradient>
    <linearGradient
       id="linearGradient3645">
      <stop
         style="stop-color:#ffe955;stop-opacity:1;"
         offset="0"
         id="stop3647" />
      <stop
         style="stop-color:#fef4ae;stop-opacity:1;"
         offset="1"
         id="stop3649" />
    </linearGradient>
    <inkscape:perspective
       sodipodi:type="inkscape:persp3d"
       inkscape:vp_x="0 : 526.18109 : 1"
       inkscape:vp_y="0 : 1000 : 0"
       inkscape:vp_z="744.09448 : 526.18109 : 1"
       inkscape:persp3d-origin="372.04724 : 350.78739 : 1"
       id="perspective9" />
    <linearGradient
       gradientUnits="userSpaceOnUse"
       y2="368.68018"
       x2="250"
       y1="249.86942"
       x1="250"
       id="linearGradient3340"
       xlink:href="#linearGradient3334"
       inkscape:collect="always" />
    <inkscape:perspective
       id="perspective10"
       inkscape:persp3d-origin="372.04724 : 350.78739 : 1"
       inkscape:vp_z="744.09448 : 526.18109 : 1"
       inkscape:vp_y="0 : 1000 : 0"
       inkscape:vp_x="0 : 526.18109 : 1"
       sodipodi:type="inkscape:persp3d" />
    <linearGradient
       id="linearGradient3334">
      <stop
         id="stop3336"
         offset="0"
         style="stop-color:#b27561;stop-opacity:1;" />
      <stop
         id="stop3338"
         offset="1"
         style="stop-color:#7a5040;stop-opacity:1;" />
    </linearGradient>
    <linearGradient
       inkscape:collect="always"
       xlink:href="#linearGradient3334"
       id="linearGradient3251"
       gradientUnits="userSpaceOnUse"
       x1="250"
       y1="249.86942"
       x2="250"
       y2="368.68018"
       gradientTransform="translate(-648.79632,489.65959)" />
    <linearGradient
       inkscape:collect="always"
       xlink:href="#linearGradient3334"
       id="linearGradient3269"
       gradientUnits="userSpaceOnUse"
       gradientTransform="matrix(0.144,0,0,0.144,2.2128906e-6,10e-7)"
       x1="250"
       y1="249.86942"
       x2="250"
       y2="368.68018" />
    <linearGradient
       inkscape:collect="always"
       xlink:href="#linearGradient3334"
       id="linearGradient3288"
       gradientUnits="userSpaceOnUse"
       gradientTransform="matrix(0.144,0,0,0.144,2.2128906e-6,1e-6)"
       x1="250"
       y1="249.86942"
       x2="250"
       y2="368.68018" />
    <linearGradient
       inkscape:collect="always"
       xlink:href="#linearGradient3334"
       id="linearGradient3297"
       gradientUnits="userSpaceOnUse"
       gradientTransform="matrix(0.144,0,0,0.144,2.2128906e-6,1e-6)"
       x1="250"
       y1="249.86942"
       x2="250"
       y2="368.68018" />
    <filter
       inkscape:collect="always"
       id="filter3176">
      <feGaussianBlur
         inkscape:collect="always"
         stdDeviation="1.671875"
         id="feGaussianBlur3178" />
    </filter>
    <linearGradient
       inkscape:collect="always"
       xlink:href="#linearGradient3645"
       id="linearGradient3651"
       x1="30.052038"
       y1="44.983238"
       x2="34.620892"
       y2="39.679935"
       gradientUnits="userSpaceOnUse" />
    <linearGradient
       inkscape:collect="always"
       xlink:href="#linearGradient3653"
       id="linearGradient3659"
       x1="49.351318"
       y1="58.855122"
       x2="51.695713"
       y2="55.673141"
       gradientUnits="userSpaceOnUse" />
    <clipPath
       clipPathUnits="userSpaceOnUse"
       id="clipPath3714">
      <path
         id="path3716"
         d="m 27.71875,2.5625 c -4.626081,0 -8.40625,3.717678 -8.40625,8.34375 1e-6,2.931263 1.56232,5.533294 3.84375,7.03125 l 0,1.5 -20.59375,0 0,20.25 1.46875,0 c 1.4979599,-2.281423 4.0687395,-3.812498 7,-3.8125 4.62608,0 8.375,3.780179 8.375,8.40625 1e-6,4.626072 -3.74892,8.406252 -8.375,8.40625 -2.7389106,-10e-7 -5.15794,-1.341144 -6.6875,-3.375 l -1.78125,0 0,20.125 20.5,0 0,-1.5625 c -2.281431,-1.49796 -3.84375,-4.068739 -3.84375,-7 0,-4.62608 3.780171,-8.374999 8.40625,-8.375 4.626071,0 8.40625,3.748921 8.40625,8.375 -1.1e-5,2.73891 -1.34115,5.157941 -3.375,6.6875 l 0,1.875 19.9375,0 0,-19.9375 1.78125,0 c 1.529559,2.033857 3.948581,3.374999 6.6875,3.375 4.626059,3e-6 8.375,-3.811428 8.375,-8.4375 2e-6,-4.62607 -3.748929,-8.34375 -8.375,-8.34375 -2.931271,3e-6 -5.50205,1.499827 -7,3.78125 l -1.46875,0 0,-20.4375 -19.84375,0 0,-1.8125 c 2.033849,-1.529561 3.37499,-3.979833 3.375,-6.71875 -2e-6,-4.626073 -3.78018,-8.34375 -8.40625,-8.34375 z"
         style="fill:#000000;fill-opacity:1;stroke:none" />
    </clipPath>
    <clipPath
       clipPathUnits="userSpaceOnUse"
       id="clipPath2876">
      <path
         id="path2878"
         d="m -105.90629,-6.7528612 c -5.45335,0 -9.90952,4.3824988 -9.90952,9.8358369 1e-5,3.4554517 1.84171,6.5227958 4.53112,8.2886263 l 0,1.768241 -24.27647,0 0,23.871244 1.73141,0 c 1.76583,-2.689402 4.79634,-4.494275 8.25178,-4.494277 5.45335,0 9.87268,4.456176 9.87268,9.909513 0,5.453339 -4.41933,9.909516 -9.87268,9.909514 -3.2287,-10e-7 -6.08031,-1.580977 -7.8834,-3.978541 l -2.09979,0 0,23.723892 24.16596,0 0,-1.841917 c -2.68942,-1.765836 -4.53112,-4.796339 -4.53112,-8.251789 0,-5.453347 4.45617,-9.872674 9.90951,-9.872675 5.45334,0 9.909517,4.419329 9.909517,9.872675 -1.3e-5,3.228701 -1.580984,6.08032 -3.978537,7.883405 l 0,2.210301 23.502857,0 0,-23.502862 2.099786,0 c 1.803085,2.397566 4.654693,3.97854 7.883405,3.978541 5.453322,4e-6 9.872675,-4.493014 9.872675,-9.946352 2e-6,-5.453336 -4.419338,-9.835837 -9.872675,-9.835837 -3.455461,4e-6 -6.485965,1.768037 -8.251789,4.457439 l -1.731402,0 0,-24.092274 -23.392346,0 0,-2.136624 c 2.397556,-1.8030877 3.978529,-4.6915342 3.978541,-7.9202433 -2e-6,-5.4533393 -4.456182,-9.8358369 -9.909512,-9.8358369 z"
         style="fill:url(#linearGradient2880);fill-opacity:1;stroke:none" />
    </clipPath>
    <linearGradient
       inkscape:collect="always"
       xlink:href="#linearGradient3334"
       id="linearGradient2880"
       gradientUnits="userSpaceOnUse"
       gradientTransform="matrix(0.16975107,0,0,0.16975107,-138.5819,-9.7736039)"
       x1="250"
       y1="249.86942"
       x2="250"
       y2="368.68018" />
    <inkscape:perspective
       id="perspective3633"
       inkscape:persp3d-origin="0.5 : 0.33333333 : 1"
       inkscape:vp_z="1 : 0.5 : 1"
       inkscape:vp_y="0 : 1000 : 0"
       inkscape:vp_x="0 : 0.5 : 1"
       sodipodi:type="inkscape:persp3d" />
    <radialGradient
       inkscape:collect="always"
       xlink:href="#linearGradient3334"
       id="radialGradient3648"
       cx="28.221825"
       cy="40"
       fx="28.221825"
       fy="40"
       r="33.4375"
       gradientUnits="userSpaceOnUse" />
    <inkscape:perspective
       id="perspective3676"
       inkscape:persp3d-origin="0.5 : 0.33333333 : 1"
       inkscape:vp_z="1 : 0.5 : 1"
       inkscape:vp_y="0 : 1000 : 0"
       inkscape:vp_x="0 : 0.5 : 1"
       sodipodi:type="inkscape:persp3d" />
    <radialGradient
       inkscape:collect="always"
       xlink:href="#linearGradient3334"
       id="radialGradient3738"
       gradientUnits="userSpaceOnUse"
       cx="28.221825"
       cy="40"
       fx="28.221825"
       fy="40"
       r="33.4375" />
    <radialGradient
       inkscape:collect="always"
       xlink:href="#linearGradient3334"
       id="radialGradient3743"
       gradientUnits="userSpaceOnUse"
       cx="28.221825"
       cy="40"
       fx="28.221825"
       fy="40"
       r="33.4375" />
    <clipPath
       clipPathUnits="userSpaceOnUse"
       id="clipPath3745">
      <path
         style="fill:url(#radialGradient3749);fill-opacity:1;stroke:none"
         d="m 29.21875,2.5625 c -4.626081,0 -8.40625,3.717678 -8.40625,8.34375 1e-6,2.931263 1.56232,5.533294 3.84375,7.03125 l 0,1.5 -20.59375,0 0,20.25 1.46875,0 c 1.4979599,-2.281423 4.0687395,-3.812498 7,-3.8125 4.62608,0 8.375,3.780179 8.375,8.40625 1e-6,4.626072 -3.74892,8.406252 -8.375,8.40625 -2.7389106,-10e-7 -5.15794,-1.341144 -6.6875,-3.375 l -1.78125,0 0,20.125 20.5,0 0,-1.5625 c -2.281431,-1.49796 -3.84375,-4.068739 -3.84375,-7 0,-4.62608 3.780171,-8.374999 8.40625,-8.375 4.626071,0 8.40625,3.748921 8.40625,8.375 -1.1e-5,2.73891 -1.34115,5.157941 -3.375,6.6875 l 0,1.875 19.9375,0 0,-19.9375 1.78125,0 c 1.529559,2.033857 3.948581,3.374999 6.6875,3.375 4.626059,3e-6 8.375,-3.811428 8.375,-8.4375 2e-6,-4.62607 -3.748929,-8.34375 -8.375,-8.34375 -2.931271,3e-6 -5.50205,1.499827 -7,3.78125 l -1.46875,0 0,-20.4375 -19.84375,0 0,-1.8125 c 2.033849,-1.529561 3.37499,-3.979833 3.375,-6.71875 -2e-6,-4.626073 -3.78018,-8.34375 -8.40625,-8.34375 z"
         id="path3747" />
    </clipPath>
    <radialGradient
       inkscape:collect="always"
       xlink:href="#linearGradient3334"
       id="radialGradient3749"
       gradientUnits="userSpaceOnUse"
       cx="28.221825"
       cy="40"
       fx="28.221825"
       fy="40"
       r="33.4375"
       gradientTransform="translate(1.5,0)" />
  </defs>
  <sodipodi:namedview
     inkscape:window-height="823"
     inkscape:window-width="1390"
     inkscape:pageshadow="2"
     inkscape:pageopacity="0.0"
     guidetolerance="10.0"
     gridtolerance="10.0"
     objecttolerance="10.0"
     borderopacity="1.0"
     bordercolor="#666666"
     pagecolor="#ffffff"
     id="base"
     showgrid="false"
     inkscape:zoom="4"
     inkscape:cx="35.357995"
     inkscape:cy="35.903782"
     inkscape:window-x="1567"
     inkscape:window-y="88"
     inkscape:current-layer="svg2"
     inkscape:window-maximized="0" />
  <path
     id="path2421"
     d="M 27.703125,3.0772048 C 23.077053,3.0772048 19.328125,6.826133 19.328125,11.452206 C 19.328126,14.383469 20.859202,16.95425 23.140625,18.452206 L 23.140625,19.983456 L 2.578125,19.983456 L 2.578125,40.233456 L 4.046875,40.233456 C 5.544835,37.952033 8.115615,36.420958 11.046875,36.420956 C 15.672955,36.420956 19.421875,40.169885 19.421875,44.795956 C 19.421875,49.422028 15.672955,53.202208 11.046875,53.202206 C 8.307965,53.202205 5.888935,51.861062 4.359375,49.827206 L 2.578125,49.827206 L 2.578125,69.983456 L 23.046875,69.983456 L 23.046875,68.389706 C 20.765452,66.891746 19.234375,64.320967 19.234375,61.389706 C 19.234375,56.763626 22.983302,53.014707 27.609375,53.014706 C 32.235447,53.014706 36.015627,56.763627 36.015625,61.389706 C 36.015624,64.128616 34.674481,66.547647 32.640625,68.077206 L 32.640625,69.983456 L 52.578125,69.983456 L 52.578125,50.014706 L 54.359375,50.014706 C 55.888936,52.048563 58.307955,53.389705 61.046875,53.389706 C 65.672944,53.389709 69.421875,49.609528 69.421875,44.983456 C 69.421877,40.357386 65.672945,36.608456 61.046875,36.608456 C 58.115614,36.608459 55.544831,38.139533 54.046875,40.420956 L 52.578125,40.420956 L 52.578125,19.983456 L 32.734375,19.983456 L 32.734375,18.139706 C 34.76823,16.610145 36.109374,14.191123 36.109375,11.452206 C 36.109376,6.8261316 32.329197,3.0772048 27.703125,3.0772048 z"
     style="opacity:1;fill:#000000;fill-opacity:1;stroke:none;stroke-width:4.42799997;stroke-linecap:square;stroke-linejoin:miter;stroke-miterlimit:10;stroke-dasharray:none;stroke-opacity:1;filter:url(#filter3176)" />
  <path
     style="fill:url(#radialGradient3648);fill-opacity:1;stroke:#764839;stroke-width:1;stroke-linecap:round;stroke-linejoin:round;stroke-miterlimit:10;stroke-dasharray:none;stroke-opacity:1"
     d="M 27.71875 2.5625 C 23.092669 2.5625 19.3125 6.280178 19.3125 10.90625 C 19.312501 13.837513 20.87482 16.439544 23.15625 17.9375 L 23.15625 19.4375 L 2.5625 19.4375 L 2.5625 39.6875 L 4.03125 39.6875 C 5.5292099 37.406077 8.0999895 35.875002 11.03125 35.875 C 15.65733 35.875 19.40625 39.655179 19.40625 44.28125 C 19.406251 48.907322 15.65733 52.687502 11.03125 52.6875 C 8.2923394 52.687499 5.87331 51.346356 4.34375 49.3125 L 2.5625 49.3125 L 2.5625 69.4375 L 23.0625 69.4375 L 23.0625 67.875 C 20.781069 66.37704 19.21875 63.806261 19.21875 60.875 C 19.21875 56.24892 22.998921 52.500001 27.625 52.5 C 32.251071 52.5 36.03125 56.248921 36.03125 60.875 C 36.031239 63.61391 34.6901 66.032941 32.65625 67.5625 L 32.65625 69.4375 L 52.59375 69.4375 L 52.59375 49.5 L 54.375 49.5 C 55.904559 51.533857 58.323581 52.874999 61.0625 52.875 C 65.688559 52.875003 69.4375 49.063572 69.4375 44.4375 C 69.437502 39.81143 65.688571 36.09375 61.0625 36.09375 C 58.131229 36.093753 55.56045 37.593577 54.0625 39.875 L 52.59375 39.875 L 52.59375 19.4375 L 32.75 19.4375 L 32.75 17.625 C 34.783849 16.095439 36.12499 13.645167 36.125 10.90625 C 36.124998 6.280177 32.34482 2.5625 27.71875 2.5625 z "
     id="rect2516" />
  <flowRoot
     xml:space="preserve"
     id="flowRoot3718"
     style="fill:black;stroke:none;stroke-opacity:1;stroke-width:1px;stroke-linejoin:miter;stroke-linecap:butt;fill-opacity:1;font-family:Bitstream Vera Sans;font-style:normal;font-weight:normal;font-size:40px"><flowRegion
       id="flowRegion3720"><rect
         id="rect3722"
         width="41.25"
         height="42.5"
         x="-58.5"
         y="23.25" /></flowRegion><flowPara
       id="flowPara3724" /></flowRoot>  <g
     id="g3721"
     clip-path="url(#clipPath3745)"
     transform="translate(-1.5,0)">
    <path
       sodipodi:nodetypes="ccsccsc"
       id="rect3718"
       d="m 27.791171,39.941837 2.785836,0.633883 c 1.29714,0.953125 2.250303,1.314378 2.922178,1.549018 1.386873,0.48434 -1.229511,2.15165 -2.698526,2.15165 l -6.290738,-0.109375 c -1.406514,-0.484375 -1.792275,-0.729511 -2.854775,-2.042275 -0.924189,-1.141875 4.667011,-2.182901 6.136025,-2.182901 z"
       style="fill:#ffffff;fill-opacity:1;stroke:none" />
    <g
       transform="translate(-111.72287,-53.740115)"
       id="g3650">
      <path
         id="path3652-9"
         d="m 136.00091,83.340543 c -0.59763,0.02245 -1.27786,0.30836 -1.51764,0.756375 -0.38266,0.715018 -0.0416,1.751194 0.67343,2.039776 0.18405,0.07427 0.35639,0.140946 0.38062,0.146396 0.24503,0.05505 1.15679,-0.527143 1.43468,-0.917412 0.39476,-0.554405 0.35647,-1.255011 -0.0976,-1.756744 -0.18281,-0.202015 -0.5149,-0.281858 -0.87348,-0.268391 z m 8.68612,0.346469 c -0.18076,0.0028 -0.36408,0.03868 -0.54166,0.112236 -0.88047,0.3647 -0.80603,1.712285 0.13663,2.493601 0.75139,0.622781 1.63463,0.612307 2.1081,-0.0244 0.77009,-1.035595 -0.43775,-2.600904 -1.70307,-2.581438 z m -6.61706,9.745051 c -0.95768,-0.004 -1.79392,0.04577 -2.2301,0.0976 -3.41155,1.016014 -5.64934,1.622976 -7.08554,2.005616 -0.63196,0.06566 -1.31679,0.08156 -2.152,0.06832 -1.84257,-0.02921 -2.03565,-0.0021 -3.36709,0.502623 -0.77763,0.294721 -1.75455,0.584907 -2.17154,0.64414 -1.18148,0.167834 -2.14957,0.482129 -2.35696,0.756374 -0.29183,0.385878 -0.0436,0.517392 0.5563,0.292794 0.29847,-0.11174 0.88904,-0.227865 1.31268,-0.253753 0.82066,-0.05014 1.778,-0.277382 3.34269,-0.785655 0.79083,-0.256898 1.2223,-0.290716 2.36672,-0.195195 1.59508,0.133149 2.81982,0.078 4.09908,-0.214712 1.11729,0.174407 2.33331,0.498814 3.42077,1.102843 2.01913,1.137508 3.2163,1.410444 5.66062,1.2834 1.95968,-0.101854 4.82121,-0.673261 5.94365,-1.185801 0.89937,-0.410676 1.09737,-0.402359 2.08369,0.04879 1.90127,0.869658 3.38945,1.182843 5.64599,1.19068 1.1484,0.0039 1.57672,0.0757 2.34232,0.400149 1.51477,0.641939 2.44651,0.947624 3.25974,1.068674 0.4198,0.0625 1.0006,0.22882 1.28827,0.366 0.57824,0.27574 0.838,0.16572 0.58071,-0.24399 -0.18286,-0.2912 -1.12127,-0.686878 -2.28377,-0.956451 -0.41029,-0.09515 -1.35893,-0.468588 -2.10809,-0.829573 -1.28273,-0.618088 -1.47525,-0.659982 -3.31342,-0.790536 -2.34664,-0.16667 -3.47079,-0.469878 -5.58254,-1.502992 -0.87944,-0.43024 -2.07403,-0.970482 -2.65464,-1.200442 -0.58061,-0.229959 -1.54593,-0.684378 -2.14712,-1.010128 -0.92896,-0.503336 -2.85432,-0.652078 -4.45042,-0.658779 z m 2.4204,0.590461 1.95194,0.96621 c 1.07356,0.531748 2.14517,1.043329 2.38135,1.132123 0.98242,0.369337 0.26904,0.75455 -2.30816,1.25412 -2.44393,0.473735 -4.42369,0.538625 -5.69478,0.185433 -0.98607,-0.273993 -3.1231,-1.472703 -3.1231,-1.751863 0,-0.235993 0.71308,-0.620299 2.22033,-1.200441 1.29708,-0.499247 1.61167,-0.55973 3.01087,-0.570943 l 1.56155,-0.01463 z"
         style="fill:#161213" />
    </g>
  </g>
</svg>
